#!OML:ASF E:\motion texture\Top Level 1\Subject 1\Session 1\male.ASF
:FULLY-SPECIFIED
:DEGREES
550
root -46.5717 17.2759 3.37257 150.339 -73.4502 -141.358
lowerback 5.90696 0.704584 8.03892
upperback 3.73965 0.958973 6.04238
thorax 0.624561 0.391767 1.70764
lowerneck -18.4521 1.20722 -1.6053
upperneck 15.7351 0.72791 6.46921
head 7.87177 0.875175 2.50369
rclavicle -5.96354e-016 2.3059e-014
rhumerus 40.3716 25.518 -68.3349
rradius 70.8589
rwrist 20.2722
rhand -33.0907 -26.2774
rfingers 7.12502
rthumb -6.30176 -56.1637
lclavicle -5.96354e-016 2.3059e-014
lhumerus 26.5806 -4.32502 105.279
lradius 53.155
lwrist 21.5752
lhand -14.0554 16.5748
lfingers 7.12502
lthumb 12.0757 46.2064
rfemur -13.97 2.35817 31.9526
rtibia 41.5949
rfoot -20.2778 3.68829
rtoes 1.82729
lfemur -36.0472 2.73925 -6.62678
ltibia 24.3517
lfoot -5.77829 8.62752
ltoes -18.6846
551
root -46.7304 17.2603 3.39167 151.135 -73.5101 -142.021
lowerback 6.09917 0.58128 7.84041
upperback 3.83891 0.795801 6.04943
thorax 0.611892 0.30632 1.832
lowerneck -18.3233 1.07684 -1.48578
upperneck 15.4909 0.585916 6.20523
head 7.77599 0.785423 2.37285
rclavicle 2.78299e-015 3.10104e-014
rhumerus 40.3716 25.518 -68.3349
rradius 70.8589
rwrist 20.2722
rhand -33.0907 -26.2774
rfingers 7.12502
rthumb -6.30176 -56.1637
lclavicle 2.78299e-015 3.10104e-014
lhumerus 26.5806 -4.32502 105.279
lradius 53.155
lwrist 21.5752
lhand -14.0554 16.5748
lfingers 7.12502
lthumb 12.0757 46.2064
rfemur -14.8888 2.20724 31.3891
rtibia 43.8953
rfoot -19.3313 4.41698
rtoes 0.352318
lfemur -36.0472 2.73925 -6.62678
ltibia 24.3517
lfoot -5.77829 8.62752
ltoes -18.6846
552
root -46.8827 17.2512 3.40935 152.267 -73.5985 -143.035
lowerback 6.3887 0.477356 7.51902
upperback 3.95141 0.663613 6.03395
thorax 0.558216 0.234254 1.99938
lowerneck -18.0085 0.959104 -1.16579
upperneck 14.9235 0.461934 5.75369
head 7.54155 0.692607 2.14238
rclavicle 3.18055e-015 7.55382e-014
rhumerus 40.3716 25.518 -68.3349
rradius 70.8589
rwrist 20.2722
rhand -33.0907 -26.2774
rfingers 7.12502
rthumb -6.30176 -56.1637
lclavicle 3.18055e-015 7.55382e-014
lhumerus 26.5806 -4.32502 105.279
lradius 53.155
lwrist 21.5752
lhand -14.0554 16.5748
lfingers 7.12502
lthumb 12.0757 46.2064
rfemur -16.1117 2.09653 30.6849
rtibia 46.5878
rfoot -18.0427 5.20685
rtoes -1.85429
lfemur -36.0472 2.73925 -6.62678
ltibia 24.3517
lfoot -5.77829 8.62752
ltoes -18.6846
553
root -47.0519 17.243 3.43337 154.171 -74.1637 -144.974
lowerback 6.44308 0.258455 6.9019
upperback 4.18734 0.331965 5.89183
thorax 0.758275 0.0694401 2.21227
lowerneck -17.9255 0.975585 -1.29107
upperneck 14.4761 0.558039 5.67962
head 7.37547 0.720292 2.14161
rclavicle 3.97569e-015 -3.81667e-014
rhumerus 40.3716 25.518 -68.3349
rradius 70.8589
rwrist 20.2722
rhand -33.0907 -26.2774
rfingers 7.12502
rthumb -6.30176 -56.1637
lclavicle 3.97569e-015 -3.81667e-014
lhumerus 26.5806 -4.32502 105.279
lradius 53.155
lwrist 21.5752
lhand -14.0554 16.5748
lfingers 7.12502
lthumb 12.0757 46.2064
rfemur -17.2306 1.42271 29.3344
rtibia 49.2785
rfoot -16.1718 6.41897
rtoes -2.82111
lfemur -36.0472 2.73925 -6.62678
ltibia 24.3517
lfoot -5.77829 8.62752
ltoes -18.6846
554
root -47.2108 17.2424 3.45353 155.471 -74.3058 -146.121
lowerback 6.54469 0.0883523 6.58551
upperback 4.28526 0.0900881 5.8901
thorax 0.797827 -0.0565037 2.4002
lowerneck -17.6345 1.09704 -1.49572
upperneck 14.0938 0.800136 5.66306
head 7.18936 0.816728 2.18709
rclavicle 1.19271e-015 2.3059e-014
rhumerus 40.3716 25.518 -68.3349
rradius 70.8589
rwrist 20.2722
rhand -33.0907 -26.2774
rfingers 7.12502
rthumb -6.30176 -56.1637
lclavicle 1.19271e-015 2.3059e-014
lhumerus 26.5806 -4.32502 105.279
lradius 53.155
lwrist 21.5752
lhand -14.0554 16.5748
lfingers 7.12502
lthumb 12.0757 46.2064
rfemur -18.8009 1.22919 28.4806
rtibia 52.2622
rfoot -13.6647 7.45099
rtoes -2.4139
lfemur -36.0472 2.73925 -6.62678
ltibia 24.3517
lfoot -5.77829 8.62752
ltoes -18.6846
555
root -47.3738 17.2415 3.4816 158.167 -74.6056 -148.904
lowerback 6.95889 -0.10601 5.90282
upperback 4.3672 -0.160132 5.75488
thorax 0.646144 -0.191238 2.65556
lowerneck -17.5782 1.24392 -1.53261
upperneck 13.9674 1.07079 5.37777
head 7.12815 0.917818 2.12648
rclavicle 3.1408e-014 5.725e-014
rhumerus 40.3716 25.518 -68.3349
rradius 70.8589
rwrist 20.2722
rhand -33.0907 -26.2774
rfingers 7.12502
rthumb -6.30176 -56.1637
lclavicle 3.1408e-014 5.725e-014
lhumerus 26.5806 -4.32502 105.279
lradius 53.155
lwrist 21.5752
lhand -14.0554 16.5748
lfingers 7.12502
lthumb 12.0757 46.2064
rfemur -20.2902 0.990332 26.9956
rtibia 55.1881
rfoot -10.4664 8.42515
rtoes -0.165261
lfemur -36.0472 2.73925 -6.62678
ltibia 24.3517
lfoot -5.77829 8.62752
ltoes -18.6846
556
root -47.5298 17.24 3.50644 159.55 -74.6495 -150.329
lowerback 7.20616 -0.246413 5.69663
upperback 4.45349 -0.34397 5.7114
thorax 0.598915 -0.287822 2.73904
lowerneck -17.318 1.25753 -1.55631
upperneck 13.7563 1.15681 5.09791
head 7.01276 0.928652 2.04135
rclavicle 1.11319e-014 3.33958e-014
rhumerus 40.3716 25.518 -68.3349
rradius 70.8589
rwrist 20.2722
rhand -33.0907 -26.2774
rfingers 7.12502
rthumb -6.30176 -56.1637
lclavicle 1.11319e-014 3.33958e-014
lhumerus 26.5806 -4.32502 105.279
lradius 53.155
lwrist 21.5752
lhand -14.0554 16.5748
lfingers 7.12502
lthumb 12.0757 46.2064
rfemur -21.83 0.992501 26.045
rtibia 57.8928
rfoot -6.85543 8.87219
rtoes 0.464174
lfemur -36.0472 2.73925 -6.62678
ltibia 24.3517
lfoot -5.77829 8.62752
ltoes -18.6846
557
root -47.6961 17.2419 3.53624 163.111 -74.8771 -153.872
lowerback 7.29591 -0.400666 4.97749
upperback 4.70851 -0.596962 5.49347
thorax 0.814789 -0.419161 2.92967
lowerneck -17.4885 1.54996 -1.62637
upperneck 13.5047 1.62521 4.87778
head 6.94302 1.13216 2.02972
rclavicle 4.69132e-014 8.0309e-014
rhumerus 40.3716 25.518 -68.3349
rradius 70.8589
rwrist 20.2722
rhand -33.0907 -26.2774
rfingers 7.12502
rthumb -6.30176 -56.1637
lclavicle 4.69132e-014 8.0309e-014
lhumerus 26.5806 -4.32502 105.279
lradius 53.155
lwrist 21.5752
lhand -14.0554 16.5748
lfingers 7.12502
lthumb 12.0757 46.2064
rfemur -23.5515 0.885248 24.3918
rtibia 60.3237
rfoot -3.08486 8.95135
rtoes 1.85197
lfemur -36.0472 2.73925 -6.62678
ltibia 24.3517
lfoot -5.77829 8.62752
ltoes -18.6846
558
root -47.8772 17.2382 3.57159 165.533 -75.043 -156.367
lowerback 7.47081 -0.605295 4.74783
upperback 4.78891 -0.868405 5.32159
thorax 0.804093 -0.555004 2.89878
lowerneck -17.4759 1.713 -1.55195
upperneck 13.5146 1.91019 4.4272
head 6.93854 1.23328 1.90112
rclavicle -1.59028e-015 3.10104e-014
rhumerus 40.3716 25.518 -68.3349
rradius 70.8589
rwrist 20.2722
rhand -33.0907 -26.2774
rfingers 7.12502
rthumb -6.30176 -56.1637
lclavicle -1.59028e-015 3.10104e-014
lhumerus 26.5806 -4.32502 105.279
lradius 53.155
lwrist 21.5752
lhand -14.0554 16.5748
lfingers 7.12502
lthumb 12.0757 46.2064
rfemur -24.8483 0.626164 23.0782
rtibia 62.2342
rfoot 0.268824 9.12813
rtoes 2.63838
lfemur -36.0472 2.73925 -6.62678
ltibia 24.3517
lfoot -5.77829 8.62752
ltoes -18.6846
559
root -48.0203 17.2353 3.59347 168.147 -74.8681 -158.951
lowerback 7.75358 -0.661156 4.28008
upperback 4.91316 -0.958409 5.23021
thorax 0.78118 -0.609515 3.07573
lowerneck -17.4502 1.90332 -1.64714
upperneck 13.3517 2.26312 4.07286
head 6.87191 1.36673 1.83585
rclavicle 4.69132e-014 3.65764e-014
rhumerus 40.3716 25.518 -68.3349
rradius 70.8589
rwrist 20.2722
rhand -33.0907 -26.2774
rfingers 7.12502
rthumb -6.30176 -56.1637
lclavicle 4.69132e-014 3.65764e-014
lhumerus 26.5806 -4.32502 105.279
lradius 53.155
lwrist 21.5752
lhand -14.0554 16.5748
lfingers 7.12502
lthumb 12.0757 46.2064
rfemur -26.5914 1.03377 22.0414
rtibia 64.3679
rfoot 2.84488 9.49964
rtoes 1.93202
lfemur -36.0472 2.73925 -6.62678
ltibia 24.3517
lfoot -5.77829 8.62752
ltoes -18.6846
